<?xml version="1.0" encoding="iso-8859-1"?>
<!-- Generator: Adobe Illustrator 19.0.0, SVG Export Plug-In . SVG Version: 6.00 Build 0)  -->
<svg version="1.1" id="Layer_1" xmlns="http://www.w3.org/2000/svg" xmlns:xlink="http://www.w3.org/1999/xlink" x="0px" y="0px"
	 viewBox="0 0 512.003 512.003" style="enable-background:new 0 0 512.003 512.003;" xml:space="preserve">
<path style="fill:#FFB655;" d="M418.343,198.083c-7.508-3.578-15.332-6.595-23.415-9.008c-7.589-2.268-15.41-3.998-23.415-5.147
	c-7.652-1.097-15.465-1.681-23.415-1.681c-13.457,0-26.54,1.631-39.062,4.706c-4.695,1.154-9.311,2.51-13.84,4.059
	c-3.019,1.033-5.997,2.151-8.934,3.353c-27.898,11.417-51.971,30.314-69.723,54.18c-3.759,5.051-7.235,10.323-10.404,15.794
	c-1.057,1.823-2.078,3.67-3.064,5.538c-1.049,1.987-2.071,3.993-3.041,6.027c-2.521,5.295-4.748,10.754-6.698,16.34
	c-0.815,2.338-1.597,4.691-2.309,7.074c-2.268,7.589-3.998,15.413-5.148,23.415c-1.099,7.65-1.68,15.468-1.68,23.415
	c0,19.15,3.312,37.537,9.375,54.634c1.438,4.057,3.03,8.042,4.769,11.948c1.74,3.906,3.628,7.73,5.659,11.467
	c2.246,4.129,4.666,8.151,7.248,12.057c2.582,3.906,5.326,7.694,8.222,11.358c30.043,38.007,76.535,62.439,128.631,62.439
	c90.376,0,163.902-73.527,163.902-163.902C512.002,280.896,473.669,224.434,418.343,198.083z M348.099,415.031L348.099,415.031
	c-0.003,0-0.005-0.002-0.008-0.003C348.094,415.028,348.096,415.029,348.099,415.031c0.005,0,0.008,0.002,0.012,0.003
	C348.107,415.032,348.104,415.032,348.099,415.031z"/>
<path style="fill:#EFC27B;" d="M81.563,99.906c0,54.01,43.94,97.95,97.951,97.95s97.953-43.94,97.953-97.95
	c0-54.011-43.941-97.953-97.953-97.953S81.563,45.894,81.563,99.906z"/>
<path style="fill:#A4E276;" d="M23.416,447.611h196.052c-5.791-7.327-10.975-15.157-15.468-23.415
	c-4.062-7.472-7.552-15.301-10.429-23.415c-6.063-17.097-9.375-35.484-9.375-54.634c0-7.947,0.581-15.764,1.68-23.415
	c1.15-8.002,2.88-15.825,5.148-23.415c0.712-2.384,1.494-4.738,2.309-7.074c1.95-5.587,4.177-11.045,6.698-16.34
	c0.969-2.036,1.992-4.04,3.041-6.027c3.945-7.471,8.457-14.597,13.468-21.332c-12.127-2.544-24.517-3.86-37.028-3.86
	C80.529,244.684,0,325.214,0,424.197C0.002,437.128,10.485,447.611,23.416,447.611z"/>
<path style="fill:#5C3D0E;" d="M348.099,352.061l-5.911-5.911l5.911-5.911l24.361-24.359c9.144-9.146,9.144-23.972,0-33.116
	c-0.512-0.512-1.047-0.985-1.594-1.439c-0.155-0.13-0.312-0.251-0.468-0.376c-0.428-0.339-0.866-0.659-1.311-0.963
	c-0.15-0.101-0.293-0.209-0.445-0.306c-0.562-0.367-1.136-0.707-1.723-1.019c-0.178-0.095-0.357-0.176-0.539-0.265
	c-0.421-0.211-0.848-0.409-1.277-0.592c-0.251-0.108-0.504-0.212-0.759-0.311c-0.387-0.15-0.779-0.281-1.171-0.409
	c-0.442-0.144-0.887-0.273-1.335-0.39c-0.351-0.092-0.704-0.183-1.058-0.259c-0.381-0.08-0.762-0.145-1.146-0.206
	c-0.223-0.036-0.445-0.067-0.668-0.097c-1.478-0.192-2.972-0.248-4.46-0.159c-0.025,0.002-0.047,0.002-0.072,0.003
	c-2.148,0.137-4.282,0.568-6.336,1.294c-0.779,0.275-1.547,0.593-2.301,0.951c-0.03,0.014-0.059,0.028-0.089,0.041
	c-0.695,0.334-1.375,0.712-2.042,1.118c-0.084,0.052-0.172,0.098-0.258,0.151c-0.607,0.382-1.197,0.805-1.776,1.249
	c-0.116,0.089-0.237,0.167-0.353,0.259c-0.668,0.532-1.317,1.105-1.936,1.723l-46.829,46.832
	c-4.393,4.391-6.859,10.348-6.859,16.556c0,6.211,2.466,12.166,6.859,16.556l46.829,46.829c0.618,0.618,1.269,1.189,1.936,1.723
	c0.114,0.092,0.236,0.17,0.353,0.259c0.579,0.443,1.169,0.868,1.778,1.25c0.084,0.053,0.169,0.098,0.253,0.15
	c0.668,0.406,1.347,0.784,2.043,1.119c0.031,0.014,0.059,0.028,0.089,0.041c0.751,0.357,1.516,0.674,2.293,0.949
	c0.003,0,0.005,0.002,0.008,0.002c0.005,0.002,0.008,0.003,0.012,0.005c0.615,0.217,1.238,0.407,1.865,0.574
	c0.039,0.011,0.08,0.019,0.119,0.03c0.589,0.153,1.182,0.284,1.78,0.39c0.187,0.033,0.376,0.053,0.565,0.081
	c0.465,0.072,0.932,0.141,1.4,0.184c0.685,0.061,1.374,0.098,2.062,0.098c5.993,0,11.985-2.285,16.556-6.856
	c9.144-9.146,9.144-23.972,0-33.116L348.099,352.061z"/>
<g>
	<path style="fill:#E8A240;" d="M348.099,277.267L348.099,277.267c2.053-0.723,4.188-1.155,6.336-1.292
		C352.284,276.108,350.153,276.542,348.099,277.267z"/>
	<path style="fill:#E8A240;" d="M358.967,276.13c-1.48-0.194-2.972-0.247-4.46-0.159
		C355.995,275.881,357.488,275.938,358.967,276.13z"/>
</g>
<polygon style="fill:#E49429;" points="348.099,352.061 348.099,340.24 342.188,346.149 "/>
<path style="fill:#FF9811;" d="M200.033,275.904c-2.521,5.295-4.748,10.754-6.698,16.34c-0.815,2.337-1.597,4.691-2.309,7.074
	c-2.268,7.589-3.998,15.413-5.148,23.415c-1.099,7.65-1.68,15.468-1.68,23.415c0,19.15,3.312,37.537,9.375,54.634
	c2.877,8.114,6.366,15.942,10.429,23.415c4.492,8.258,9.676,16.087,15.468,23.415c30.043,38.007,76.535,62.439,128.631,62.439
	v-95.02c-0.003,0-0.005-0.002-0.008-0.003c-0.777-0.275-1.541-0.593-2.293-0.949c-0.03-0.014-0.058-0.027-0.089-0.041
	c-0.696-0.334-1.377-0.713-2.045-1.119c-0.084-0.052-0.169-0.097-0.253-0.15c-0.609-0.382-1.199-0.807-1.778-1.25
	c-0.116-0.089-0.237-0.167-0.353-0.259c-0.668-0.532-1.317-1.104-1.936-1.723l-46.829-46.829
	c-4.393-4.391-6.859-10.346-6.859-16.556s2.466-12.166,6.859-16.557l46.829-46.832c0.618-0.618,1.269-1.191,1.936-1.723
	c0.114-0.092,0.236-0.17,0.353-0.259c0.579-0.443,1.169-0.868,1.776-1.249c0.086-0.053,0.173-0.1,0.258-0.151
	c0.667-0.406,1.346-0.785,2.042-1.118c0.03-0.014,0.059-0.027,0.089-0.041c0.752-0.357,1.522-0.677,2.301-0.951v-0.002v-95.023
	c-53.83,0-101.66,26.106-131.557,66.299c-5.011,6.736-9.523,13.86-13.468,21.332C202.025,271.864,201.002,273.868,200.033,275.904z"
	/>
<path style="fill:#ECB45C;" d="M81.563,99.906c0,53.485,43.1,97.071,96.39,97.911V1.992C124.663,2.832,81.563,46.417,81.563,99.906z
	"/>
<path style="fill:#64C37D;" d="M0.002,424.197c0,12.931,10.484,23.415,23.415,23.415h154.537V244.705
	C79.688,245.546,0.002,325.735,0.002,424.197z"/>
<g>
</g>
<g>
</g>
<g>
</g>
<g>
</g>
<g>
</g>
<g>
</g>
<g>
</g>
<g>
</g>
<g>
</g>
<g>
</g>
<g>
</g>
<g>
</g>
<g>
</g>
<g>
</g>
<g>
</g>
</svg>
